<?xml version="1.0" encoding="UTF-8"?>
<!DOCTYPE svg PUBLIC "-//W3C//DTD SVG 1.1//EN" "http://www.w3.org/Graphics/SVG/1.1/DTD/svg11.dtd">
<svg xmlns="http://www.w3.org/2000/svg" version="1.1" width="1085px" height="81px" style="shape-rendering:geometricPrecision; text-rendering:geometricPrecision; image-rendering:optimizeQuality; fill-rule:evenodd; clip-rule:evenodd" xmlns:xlink="http://www.w3.org/1999/xlink">
<g><path style="opacity:0.931" fill="#000000" d="M 259.5,-0.5 C 260.833,-0.5 262.167,-0.5 263.5,-0.5C 265.27,1.11327 266.436,3.11327 267,5.5C 267.986,12.1265 268.486,18.7932 268.5,25.5C 267.988,38.8329 267.488,52.1662 267,65.5C 265.235,68.473 262.735,70.6396 259.5,72C 245.376,77.1329 231.043,77.7995 216.5,74C 211.269,71.7685 207.769,67.9352 206,62.5C 201.77,47.8826 205.603,36.0493 217.5,27C 230.112,22.1332 241.445,24.1332 251.5,33C 252.793,33.49 254.127,33.6567 255.5,33.5C 256.261,23.1994 256.761,12.8661 257,2.5C 257.698,1.30943 258.531,0.309426 259.5,-0.5 Z M 225.5,37.5 C 237.922,36.4615 247.422,41.1282 254,51.5C 255.041,54.6363 254.207,57.1363 251.5,59C 241.982,64.4888 232.316,64.8222 222.5,60C 216.426,53.9861 215.926,47.4861 221,40.5C 222.652,39.6006 224.152,38.6006 225.5,37.5 Z"/></g>
<g><path style="opacity:0.937" fill="#000000" d="M 796.5,-0.5 C 798.167,-0.5 799.833,-0.5 801.5,-0.5C 803.576,0.426808 804.743,2.09347 805,4.5C 804.432,14.1813 804.599,23.848 805.5,33.5C 811.103,30.6987 816.769,27.8654 822.5,25C 838.799,21.7293 849.633,27.896 855,43.5C 856.315,51.8389 855.315,59.8389 852,67.5C 847.931,72.2854 842.764,75.1188 836.5,76C 821.848,78.4351 808.182,75.9351 795.5,68.5C 794.194,67.0878 793.36,65.4211 793,63.5C 792.333,44.8333 792.333,26.1667 793,7.5C 793.368,4.43489 794.535,1.76822 796.5,-0.5 Z M 824.5,37.5 C 835.506,35.1901 841.839,39.5234 843.5,50.5C 842.933,56.2344 839.933,60.0677 834.5,62C 824.831,64.8912 815.831,63.5579 807.5,58C 804.993,54.7927 805.159,51.626 808,48.5C 812.654,43.4329 818.154,39.7662 824.5,37.5 Z"/></g>
<g><path style="opacity:0.933" fill="#000000" d="M 498.5,80.5 C 489.167,80.5 479.833,80.5 470.5,80.5C 463.485,79.3222 456.985,76.6555 451,72.5C 448.697,67.9617 449.197,63.795 452.5,60C 454.5,59.3333 456.5,59.3333 458.5,60C 471.89,67.2824 485.89,68.949 500.5,65C 508.398,60.4064 508.398,56.0731 500.5,52C 491.195,50.5214 481.861,49.1881 472.5,48C 452.893,43.9565 446.393,32.4565 453,13.5C 461.617,3.79624 472.45,-0.53709 485.5,0.5C 497.162,-0.469225 506.996,3.19744 515,11.5C 518.228,17.1854 518.228,22.8521 515,28.5C 511.475,30.1903 508.475,29.5236 506,26.5C 505.199,17.8251 500.366,13.3251 491.5,13C 482.719,11.6484 474.386,12.9818 466.5,17C 461.244,21.7918 461.244,26.4585 466.5,31C 479.475,33.3985 492.475,35.7319 505.5,38C 518.031,44.2539 521.864,54.0873 517,67.5C 512.739,74.7006 506.572,79.034 498.5,80.5 Z"/></g>
<g><path style="opacity:0.938" fill="#000000" d="M -0.5,71.5 C -0.5,50.1667 -0.5,28.8333 -0.5,7.5C 0.532699,4.14297 2.86603,2.14297 6.5,1.5C 8.75044,2.45866 11.0838,3.12532 13.5,3.5C 26.5857,0.849239 38.919,2.68257 50.5,9C 62.3627,19.7385 64.8627,32.2385 58,46.5C 51.2885,54.515 42.7885,57.3483 32.5,55C 28.4826,53.6623 24.4826,52.6623 20.5,52C 31.8111,62.0776 44.8111,65.4109 59.5,62C 64.2988,65.0711 65.4655,69.2378 63,74.5C 43.0437,81.4237 26.0437,76.7571 12,60.5C 11.6667,64.8333 11.3333,69.1667 11,73.5C 6.21711,78.923 2.38378,78.2563 -0.5,71.5 Z M 23.5,14.5 C 34.6435,13.987 43.1435,18.3203 49,27.5C 51.5634,37.3028 47.5634,42.3028 37,42.5C 30.3464,42.2819 24.1798,40.4486 18.5,37C 12.8364,32.8445 10.6697,27.3445 12,20.5C 15.3077,17.2645 19.1411,15.2645 23.5,14.5 Z"/></g>
<g><path style="opacity:0.935" fill="#000000" d="M 1006.5,1.5 C 1010.06,1.40814 1013.39,2.24148 1016.5,4C 1017.89,5.17109 1018.73,6.67109 1019,8.5C 1019.98,30.2554 1019.64,51.9221 1018,73.5C 1014.67,76.1667 1011.33,76.1667 1008,73.5C 1007.99,55.0167 1007.32,36.6833 1006,18.5C 1000.16,28.1825 994.824,38.1825 990,48.5C 987.988,51.8458 985.321,54.5125 982,56.5C 978.406,55.24 975.739,52.9067 974,49.5C 969.512,39.19 964.512,29.19 959,19.5C 958.667,36.8333 958.333,54.1667 958,71.5C 956.152,76.4165 952.986,77.5832 948.5,75C 947.107,73.8289 946.273,72.3289 946,70.5C 945.333,51.1667 945.333,31.8333 946,12.5C 949.774,2.8617 956.274,0.361703 965.5,5C 968.388,8.22159 970.888,11.7216 973,15.5C 975.619,22.6983 978.619,29.6983 982,36.5C 986.204,26.4252 991.204,16.7585 997,7.5C 999.843,4.83733 1003.01,2.83733 1006.5,1.5 Z"/></g>
<g><path style="opacity:0.936" fill="#000000" d="M 527.5,3.5 C 530.482,3.10445 533.149,3.77111 535.5,5.5C 537.041,11.2402 538.041,17.0735 538.5,23C 545.324,22.8652 552.157,22.3652 559,21.5C 566.097,21.2916 568.43,24.625 566,31.5C 565.5,32.6667 564.667,33.5 563.5,34C 554.518,34.8797 545.518,35.3797 536.5,35.5C 535.134,42.1893 535.301,48.856 537,55.5C 538.819,62.3363 543.319,65.6697 550.5,65.5C 555.319,64.1709 559.819,62.1709 564,59.5C 570.175,63.3819 571.008,68.2153 566.5,74C 552.396,82.1162 539.563,80.6162 528,69.5C 525.867,65.7684 524.534,61.7684 524,57.5C 523.333,42.5 523.333,27.5 524,12.5C 524.117,9.03654 525.284,6.03654 527.5,3.5 Z"/></g>
<g><path style="opacity:0.927" fill="#000000" d="M 170.5,4.5 C 181.509,3.75148 189.676,8.08481 195,17.5C 197.281,23.29 198.614,29.29 199,35.5C 199.941,48.2372 199.607,60.9039 198,73.5C 195.833,76.2868 192.999,77.1201 189.5,76C 188.299,75.0975 187.465,73.9308 187,72.5C 186.885,58.7931 186.218,45.1264 185,31.5C 183.677,23.8487 179.343,19.1821 172,17.5C 165.306,18.5214 160.639,22.1881 158,28.5C 153.481,42.1234 150.815,56.1234 150,70.5C 149.265,74.0694 147.098,76.0694 143.5,76.5C 141.259,75.9682 139.759,74.6349 139,72.5C 136.019,51.8741 135.352,31.2074 137,10.5C 139.782,4.80996 143.449,4.14329 148,8.5C 148.282,14.2165 148.948,19.8831 150,25.5C 152.065,17.8566 156.232,11.6899 162.5,7C 165.31,6.21774 167.977,5.38441 170.5,4.5 Z"/></g>
<g><path style="opacity:0.931" fill="#000000" d="M 668.5,4.5 C 682.595,4.11702 692.762,10.117 699,22.5C 699.667,26.8333 699.667,31.1667 699,35.5C 696.668,38.7909 693.835,39.2909 690.5,37C 689.88,24.7109 683.38,17.8776 671,16.5C 661.021,18.4143 655.021,24.4143 653,34.5C 652.501,38.1516 652.335,41.8183 652.5,45.5C 664.838,45.3335 677.171,45.5001 689.5,46C 693.057,48.5808 693.39,51.5808 690.5,55C 677.82,55.1674 665.154,55.6674 652.5,56.5C 652.337,63.19 651.837,69.8566 651,76.5C 646.882,79.5921 643.549,78.9255 641,74.5C 640.333,60.5 640.333,46.5 641,32.5C 642.854,15.6779 652.02,6.34461 668.5,4.5 Z"/></g>
<g><path style="opacity:0.92" fill="#000000" d="M 731.5,4.5 C 740.784,4.65007 749.118,7.48341 756.5,13C 763.095,20.0388 764.762,28.0388 761.5,37C 757.014,39.5832 753.848,38.4165 752,33.5C 750.953,22.7904 744.953,17.1238 734,16.5C 726.392,17.4377 721.059,21.4377 718,28.5C 716.028,33.6871 715.361,39.0204 716,44.5C 728.425,45.3231 740.925,45.8231 753.5,46C 756.167,49 756.167,52 753.5,55C 741.167,55.3333 728.833,55.6667 716.5,56C 715.688,62.0851 715.188,68.2518 715,74.5C 713.666,78.1044 711.166,79.271 707.5,78C 705.462,76.764 704.295,74.9306 704,72.5C 703.333,60.1667 703.333,47.8333 704,35.5C 704.719,17.2976 713.886,6.96429 731.5,4.5 Z"/></g>
<g><path style="opacity:0.925" fill="#000000" d="M 904.5,4.5 C 909.133,3.45819 912.299,5.12486 914,9.5C 914.667,20.5 914.667,31.5 914,42.5C 913.21,71.2993 898.71,83.1327 870.5,78C 861.988,73.8967 860.321,67.8967 865.5,60C 867.167,59.3333 868.833,59.3333 870.5,60C 880.157,68.9817 889.323,68.4817 898,58.5C 905.356,43.7222 903.856,41.8889 893.5,53C 884.291,57.8808 875.291,57.5475 866.5,52C 862.87,48.2382 860.703,43.7382 860,38.5C 859.105,28.4394 859.438,18.4394 861,8.5C 861.576,6.14835 863.076,5.14835 865.5,5.5C 869.969,5.90324 872.302,8.40324 872.5,13C 871.17,20.4601 870.67,27.9601 871,35.5C 874.311,44.2333 880.144,46.3999 888.5,42C 892.115,38.3811 894.949,34.2144 897,29.5C 898.667,22.1616 900.334,14.8283 902,7.5C 903.045,6.62656 903.878,5.62656 904.5,4.5 Z"/></g>
<g><path style="opacity:0.925" fill="#000000" d="M 341.5,5.5 C 344.272,5.21997 346.772,5.88664 349,7.5C 349.879,10.8185 350.713,14.1518 351.5,17.5C 362.068,1.19201 371.901,1.52534 381,18.5C 386.299,11.3553 393.299,7.35533 402,6.5C 408.838,6.65546 413.504,9.98879 416,16.5C 419.875,33.3375 420.542,50.3375 418,67.5C 417.603,72.3272 415.269,75.6605 411,77.5C 408.679,76.5128 407.013,74.8461 406,72.5C 405.667,57.5 405.333,42.5 405,27.5C 402.107,19.8763 397.774,18.8763 392,24.5C 389.229,28.8041 387.229,33.4707 386,38.5C 384.355,49.15 383.022,59.8166 382,70.5C 375.281,75.4976 371.781,73.6643 371.5,65C 372.96,52.8042 372.794,40.6375 371,28.5C 370.275,26.0506 369.275,23.7173 368,21.5C 365.333,18.8333 362.667,18.8333 360,21.5C 357.211,26.5343 355.211,31.8677 354,37.5C 352.115,49.0857 351.115,60.7524 351,72.5C 349.309,76.2127 346.475,77.3794 342.5,76C 341.299,75.0975 340.465,73.9308 340,72.5C 338.597,52.5172 338.264,32.5172 339,12.5C 339.379,9.96987 340.213,7.63653 341.5,5.5 Z"/></g>
<g><path style="opacity:0.932" fill="#000000" d="M 577.5,5.5 C 584.176,5.00658 587.509,8.17325 587.5,15C 585.62,28.6873 586.454,42.1873 590,55.5C 595.986,66.2484 603.32,67.2484 612,58.5C 614.466,53.7684 616.133,48.7684 617,43.5C 617.978,32.4373 619.312,21.4373 621,10.5C 622.965,6.55587 625.965,5.55587 630,7.5C 630.862,9.08698 631.529,10.7536 632,12.5C 632.236,30.1783 632.736,47.845 633.5,65.5C 633.653,69.3966 632.653,72.8966 630.5,76C 627.653,76.9439 625.153,76.4439 623,74.5C 621.986,70.9015 621.153,67.2348 620.5,63.5C 613.384,76.7897 602.718,80.623 588.5,75C 580.597,70.0398 576.097,62.8732 575,53.5C 573.644,39.8558 573.31,26.1892 574,12.5C 574.653,9.86077 575.82,7.52743 577.5,5.5 Z"/></g>
<g><path style="opacity:0.928" fill="#000000" d="M 90.5,6.5 C 101.729,4.85126 112.063,7.01793 121.5,13C 125.743,18.0552 128.243,23.8886 129,30.5C 129.82,43.6859 130.653,56.8526 131.5,70C 129.732,78.1113 125.566,79.6113 119,74.5C 118.667,71.8333 118.333,69.1667 118,66.5C 117.612,65.572 116.945,64.9054 116,64.5C 110.598,67.7861 105.098,70.9528 99.5,74C 88.6436,78.7174 79.1436,76.8841 71,68.5C 63.9796,51.873 68.813,40.373 85.5,34C 95.0251,33.1973 104.525,32.6973 114,32.5C 113.819,22.985 108.819,17.985 99,17.5C 89.8995,17.1268 83.3995,20.9602 79.5,29C 73.6384,30.48 70.6384,28.1467 70.5,22C 71.3109,17.3812 73.6442,13.7145 77.5,11C 81.8456,9.16398 86.179,7.66398 90.5,6.5 Z M 93.5,43.5 C 99.5652,43.2614 105.565,43.7614 111.5,45C 113.861,45.1968 115.528,46.3635 116.5,48.5C 112.553,54.3223 107.22,58.4889 100.5,61C 94.8242,63.0128 89.1575,63.3461 83.5,62C 79.1904,56.4899 79.8571,51.4899 85.5,47C 88.1579,45.522 90.8245,44.3554 93.5,43.5 Z"/></g>
<g><path style="opacity:0.926" fill="#000000" d="M 302.5,6.5 C 317.046,6.83911 326.546,13.8391 331,27.5C 334.893,41.6818 332.893,55.0151 325,67.5C 314.555,77.8094 302.389,80.3094 288.5,75C 277.616,67.2328 272.283,56.5662 272.5,43C 272.667,22.3627 282.667,10.196 302.5,6.5 Z M 298.5,18.5 C 310.892,16.9359 318.058,22.2693 320,34.5C 321.94,44.837 320.106,54.337 314.5,63C 295.6,70.5383 285.933,64.0383 285.5,43.5C 285.625,36.8109 287.125,30.4775 290,24.5C 292.671,22.0976 295.505,20.0976 298.5,18.5 Z"/></g>
<g><path style="opacity:0.928" fill="#000000" d="M 1084.5,60.5 C 1084.5,63.1667 1084.5,65.8333 1084.5,68.5C 1079.15,73.3462 1072.82,76.1796 1065.5,77C 1039.27,81.4237 1025.6,70.4237 1024.5,44C 1024.17,31.3427 1028.5,20.676 1037.5,12C 1049.55,4.73081 1061.55,4.73081 1073.5,12C 1085.08,23.8454 1085.42,36.0121 1074.5,48.5C 1062.79,57.0025 1050.63,57.6691 1038,50.5C 1038.01,54.5594 1039.85,57.7261 1043.5,60C 1050.72,64.5054 1058.38,65.5054 1066.5,63C 1070.76,61.287 1074.92,59.4536 1079,57.5C 1081.09,58.1242 1082.92,59.1242 1084.5,60.5 Z M 1051.5,18.5 C 1061.54,16.9027 1067.87,20.9027 1070.5,30.5C 1067.78,41.8583 1060.78,46.0249 1049.5,43C 1038.45,38.2437 1036.79,31.4104 1044.5,22.5C 1046.77,20.8726 1049.1,19.5392 1051.5,18.5 Z"/></g>
</svg>
